<?xml version="1.0" encoding="UTF-8" standalone="no"?>
<!DOCTYPE svg PUBLIC "-//W3C//DTD SVG 1.1//EN"
 "http://www.w3.org/Graphics/SVG/1.1/DTD/svg11.dtd">
<!-- Generated by graphviz version 12.1.1 (20240910.0053)
 -->
<!-- Title: INFRA Pages: 1 -->
<svg width="1336pt" height="188pt"
 viewBox="0.00 0.00 1336.10 188.00" xmlns="http://www.w3.org/2000/svg" xmlns:xlink="http://www.w3.org/1999/xlink">
<g id="graph0" class="graph" transform="scale(1 1) rotate(0) translate(4 184)">
<title>INFRA</title>
<polygon fill="white" stroke="none" points="-4,4 -4,-184 1332.1,-184 1332.1,4 -4,4"/>
<!-- StateMachine11c43345 -->
<g id="node1" class="node">
<title>StateMachine11c43345</title>
<path fill="#b7e0ff" stroke="black" stroke-width="2" d="M781.84,-180C781.84,-180 557.96,-180 557.96,-180 551.96,-180 545.96,-174 545.96,-168 545.96,-168 545.96,-120 545.96,-120 545.96,-114 551.96,-108 557.96,-108 557.96,-108 781.84,-108 781.84,-108 787.84,-108 793.84,-114 793.84,-120 793.84,-120 793.84,-168 793.84,-168 793.84,-174 787.84,-180 781.84,-180"/>
<text text-anchor="middle" x="669.9" y="-148.2" font-family="Arial" font-size="14.00">StateMachine11c43345</text>
<text text-anchor="middle" x="669.9" y="-131.4" font-family="Arial" font-size="14.00">(AWS::StepFunctions::StateMachine)</text>
</g>
<!-- Role4087bc43 -->
<g id="node2" class="node">
<title>Role4087bc43</title>
<path fill="#e6e6e6" stroke="black" stroke-width="2" d="M406.13,-72C406.13,-72 303.67,-72 303.67,-72 297.67,-72 291.67,-66 291.67,-60 291.67,-60 291.67,-12 291.67,-12 291.67,-6 297.67,0 303.67,0 303.67,0 406.13,0 406.13,0 412.13,0 418.13,-6 418.13,-12 418.13,-12 418.13,-60 418.13,-60 418.13,-66 412.13,-72 406.13,-72"/>
<text text-anchor="middle" x="354.9" y="-40.2" font-family="Arial" font-size="14.00">Role4087bc43</text>
<text text-anchor="middle" x="354.9" y="-23.4" font-family="Arial" font-size="14.00">(AWS::IAM::Role)</text>
</g>
<!-- StateMachine11c43345&#45;&gt;Role4087bc43 -->
<g id="edge1" class="edge">
<title>StateMachine11c43345&#45;&gt;Role4087bc43</title>
<path fill="none" stroke="black" d="M564.57,-107.56C520.17,-92.62 469.54,-75.58 429.15,-61.99"/>
<polygon fill="black" stroke="black" points="430.34,-58.69 419.75,-58.82 428.11,-65.33 430.34,-58.69"/>
</g>
<!-- LogGroup4430c3d5 -->
<g id="node6" class="node">
<title>LogGroup4430c3d5</title>
<path fill="#e6e6e6" stroke="black" stroke-width="2" d="M740.6,-72C740.6,-72 599.2,-72 599.2,-72 593.2,-72 587.2,-66 587.2,-60 587.2,-60 587.2,-12 587.2,-12 587.2,-6 593.2,0 599.2,0 599.2,0 740.6,0 740.6,0 746.6,0 752.6,-6 752.6,-12 752.6,-12 752.6,-60 752.6,-60 752.6,-66 746.6,-72 740.6,-72"/>
<text text-anchor="middle" x="669.9" y="-40.2" font-family="Arial" font-size="14.00">LogGroup4430c3d5</text>
<text text-anchor="middle" x="669.9" y="-23.4" font-family="Arial" font-size="14.00">(AWS::Logs::LogGroup)</text>
</g>
<!-- StateMachine11c43345&#45;&gt;LogGroup4430c3d5 -->
<g id="edge2" class="edge">
<title>StateMachine11c43345&#45;&gt;LogGroup4430c3d5</title>
<path fill="none" stroke="black" d="M669.9,-107.7C669.9,-99.93 669.9,-91.57 669.9,-83.43"/>
<polygon fill="black" stroke="black" points="673.4,-83.66 669.9,-73.66 666.4,-83.66 673.4,-83.66"/>
</g>
<!-- Policyea24976f -->
<g id="node3" class="node">
<title>Policyea24976f</title>
<path fill="#e6e6e6" stroke="black" stroke-width="2" d="M151.8,-180C151.8,-180 12,-180 12,-180 6,-180 0,-174 0,-168 0,-168 0,-120 0,-120 0,-114 6,-108 12,-108 12,-108 151.8,-108 151.8,-108 157.8,-108 163.8,-114 163.8,-120 163.8,-120 163.8,-168 163.8,-168 163.8,-174 157.8,-180 151.8,-180"/>
<text text-anchor="middle" x="81.9" y="-148.2" font-family="Arial" font-size="14.00">Policyea24976f</text>
<text text-anchor="middle" x="81.9" y="-131.4" font-family="Arial" font-size="14.00">(AWS::IAM::RolePolicy)</text>
</g>
<!-- Policyea24976f&#45;&gt;Role4087bc43 -->
<g id="edge3" class="edge">
<title>Policyea24976f&#45;&gt;Role4087bc43</title>
<path fill="none" stroke="black" d="M164.18,-111.05C201.33,-96.63 244.88,-79.72 280.98,-65.7"/>
<polygon fill="black" stroke="black" points="281.97,-69.07 290.03,-62.19 279.44,-62.54 281.97,-69.07"/>
</g>
<!-- Policyb2cf9e9d -->
<g id="node4" class="node">
<title>Policyb2cf9e9d</title>
<path fill="#e6e6e6" stroke="black" stroke-width="2" d="M333.8,-180C333.8,-180 194,-180 194,-180 188,-180 182,-174 182,-168 182,-168 182,-120 182,-120 182,-114 188,-108 194,-108 194,-108 333.8,-108 333.8,-108 339.8,-108 345.8,-114 345.8,-120 345.8,-120 345.8,-168 345.8,-168 345.8,-174 339.8,-180 333.8,-180"/>
<text text-anchor="middle" x="263.9" y="-148.2" font-family="Arial" font-size="14.00">Policyb2cf9e9d</text>
<text text-anchor="middle" x="263.9" y="-131.4" font-family="Arial" font-size="14.00">(AWS::IAM::RolePolicy)</text>
</g>
<!-- Policyb2cf9e9d&#45;&gt;Role4087bc43 -->
<g id="edge4" class="edge">
<title>Policyb2cf9e9d&#45;&gt;Role4087bc43</title>
<path fill="none" stroke="black" d="M294.2,-107.7C301.65,-99.03 309.7,-89.65 317.44,-80.63"/>
<polygon fill="black" stroke="black" points="319.89,-83.16 323.74,-73.29 314.58,-78.6 319.89,-83.16"/>
</g>
<!-- Policy44ed3065 -->
<g id="node5" class="node">
<title>Policy44ed3065</title>
<path fill="#e6e6e6" stroke="black" stroke-width="2" d="M515.8,-180C515.8,-180 376,-180 376,-180 370,-180 364,-174 364,-168 364,-168 364,-120 364,-120 364,-114 370,-108 376,-108 376,-108 515.8,-108 515.8,-108 521.8,-108 527.8,-114 527.8,-120 527.8,-120 527.8,-168 527.8,-168 527.8,-174 521.8,-180 515.8,-180"/>
<text text-anchor="middle" x="445.9" y="-148.2" font-family="Arial" font-size="14.00">Policy44ed3065</text>
<text text-anchor="middle" x="445.9" y="-131.4" font-family="Arial" font-size="14.00">(AWS::IAM::RolePolicy)</text>
</g>
<!-- Policy44ed3065&#45;&gt;Role4087bc43 -->
<g id="edge5" class="edge">
<title>Policy44ed3065&#45;&gt;Role4087bc43</title>
<path fill="none" stroke="black" d="M415.6,-107.7C408.15,-99.03 400.1,-89.65 392.36,-80.63"/>
<polygon fill="black" stroke="black" points="395.22,-78.6 386.06,-73.29 389.91,-83.16 395.22,-78.6"/>
</g>
<!-- S3Bucket -->
<g id="node7" class="node">
<title>S3Bucket</title>
<path fill="#fff5cd" stroke="black" stroke-width="2" d="M944.25,-173.45C944.25,-177.07 914.51,-180 877.9,-180 841.29,-180 811.55,-177.07 811.55,-173.45 811.55,-173.45 811.55,-114.55 811.55,-114.55 811.55,-110.93 841.29,-108 877.9,-108 914.51,-108 944.25,-110.93 944.25,-114.55 944.25,-114.55 944.25,-173.45 944.25,-173.45"/>
<path fill="none" stroke="black" stroke-width="2" d="M944.25,-173.45C944.25,-169.84 914.51,-166.91 877.9,-166.91 841.29,-166.91 811.55,-169.84 811.55,-173.45"/>
<text text-anchor="middle" x="877.9" y="-148.2" font-family="Arial" font-size="14.00">S3Bucket</text>
<text text-anchor="middle" x="877.9" y="-131.4" font-family="Arial" font-size="14.00">(AWS::S3::Bucket)</text>
</g>
<!-- BedrockModel -->
<g id="node8" class="node">
<title>BedrockModel</title>
<path fill="#b7e0ff" stroke="black" stroke-width="2" d="M1112.03,-180C1112.03,-180 973.77,-180 973.77,-180 967.77,-180 961.77,-174 961.77,-168 961.77,-168 961.77,-120 961.77,-120 961.77,-114 967.77,-108 973.77,-108 973.77,-108 1112.03,-108 1112.03,-108 1118.03,-108 1124.03,-114 1124.03,-120 1124.03,-120 1124.03,-168 1124.03,-168 1124.03,-174 1118.03,-180 1112.03,-180"/>
<text text-anchor="middle" x="1042.9" y="-148.2" font-family="Arial" font-size="14.00">BedrockModel</text>
<text text-anchor="middle" x="1042.9" y="-131.4" font-family="Arial" font-size="14.00">(AWS::Bedrock::Model)</text>
</g>
<!-- HttpApiConnection -->
<g id="node9" class="node">
<title>HttpApiConnection</title>
<path fill="#e78f81" stroke="black" stroke-width="2" d="M1316.1,-180C1316.1,-180 1153.7,-180 1153.7,-180 1147.7,-180 1141.7,-174 1141.7,-168 1141.7,-168 1141.7,-120 1141.7,-120 1141.7,-114 1147.7,-108 1153.7,-108 1153.7,-108 1316.1,-108 1316.1,-108 1322.1,-108 1328.1,-114 1328.1,-120 1328.1,-120 1328.1,-168 1328.1,-168 1328.1,-174 1322.1,-180 1316.1,-180"/>
<text text-anchor="middle" x="1234.9" y="-148.2" font-family="Arial" font-size="14.00">HttpApiConnection</text>
<text text-anchor="middle" x="1234.9" y="-131.4" font-family="Arial" font-size="14.00">(AWS::Events::Connection)</text>
</g>
</g>
</svg>
